<?xml version="1.0" standalone="no"?>
<!DOCTYPE svg PUBLIC "-//W3C//DTD SVG 20010904//EN"
 "http://www.w3.org/TR/2001/REC-SVG-20010904/DTD/svg10.dtd">
<svg version="1.0" xmlns="http://www.w3.org/2000/svg"
 width="50px" height="50px" viewBox="0 0 300.000000 300.000000"
 preserveAspectRatio="xMidYMid meet">
<metadata>
Created by potrace 1.10, written by Peter Selinger 2001-2011
</metadata>
<g transform="translate(0.000000,300.000000) scale(0.100000,-0.100000)"
fill="#000000" stroke="none">
<path d="M1378 2919 c-530 -44 -1005 -397 -1202 -895 -271 -685 30 -1469 692
-1800 194 -97 398 -144 623 -144 705 0 1297 496 1414 1185 22 130 23 340 1
465 -98 561 -543 1028 -1101 1158 -73 17 -304 46 -325 41 -3 -1 -49 -5 -102
-10z m284 -215 c65 -33 158 -120 211 -198 46 -68 127 -227 127 -249 0 -9 -12
-18 -27 -21 -60 -11 -212 -26 -293 -29 l-85 -2 -3 263 c-1 178 1 262 8 262 6
0 34 -12 62 -26z m-254 -241 l-3 -258 -80 2 c-93 3 -275 23 -292 32 -14 7 28
109 87 212 52 88 158 202 225 240 27 16 53 29 58 29 4 0 6 -116 5 -257z m-398
161 c0 -4 -31 -63 -69 -133 -38 -69 -77 -145 -86 -168 -11 -28 -23 -43 -35
-43 -21 0 -208 55 -217 64 -9 9 68 87 157 159 97 78 250 152 250 121z m1210
-112 c79 -56 182 -152 177 -166 -2 -5 -46 -22 -98 -37 -70 -20 -97 -24 -105
-15 -7 6 -28 49 -48 95 -20 46 -56 116 -81 156 -25 40 -45 76 -45 80 0 10 126
-61 200 -113z m-1623 -361 c54 -17 117 -35 141 -41 23 -6 42 -14 42 -18 0 -5
-9 -48 -20 -98 -10 -49 -25 -141 -31 -204 -7 -63 -17 -121 -22 -127 -7 -10
-61 -13 -206 -13 -241 0 -241 0 -222 86 23 103 62 216 106 309 49 103 82 148
100 141 8 -3 58 -18 112 -35z m1957 1 c53 -47 165 -342 169 -447 l2 -50 -199
0 -200 0 -6 26 c-14 50 -64 418 -58 424 3 3 50 21 104 41 106 37 151 38 188 6z
m-1443 -112 c46 -6 131 -14 189 -18 l105 -7 0 -180 0 -180 -248 -3 c-212 -2
-248 0 -253 13 -11 26 34 320 57 374 8 19 15 22 37 18 16 -3 66 -11 113 -17z
m968 -32 c19 -87 40 -230 43 -293 l3 -60 -265 0 -265 0 0 180 0 180 115 8 c62
4 155 14 205 21 156 23 152 24 164 -36z m-96 -530 c90 -7 147 -16 148 -22 8
-110 -38 -465 -65 -500 -10 -14 -36 -13 -234 8 -123 13 -228 28 -234 34 -5 5
-12 95 -15 199 -7 219 0 257 51 279 39 17 157 18 349 2z m-1271 -88 c23 -243
31 -304 49 -388 11 -52 18 -96 16 -98 -2 -3 -45 -16 -94 -29 -50 -13 -117 -33
-148 -44 -69 -25 -71 -23 -122 67 -47 84 -90 195 -118 307 -25 97 -41 237 -30
254 4 8 73 11 223 9 l217 -3 7 -75z m693 -165 l0 -240 -110 -8 c-60 -4 -157
-14 -215 -21 -58 -8 -109 -11 -114 -6 -26 26 -85 463 -68 508 3 10 60 12 256
10 l251 -3 0 -240z m1335 203 c0 -133 -59 -350 -135 -498 -63 -120 -68 -124
-131 -101 -27 10 -89 29 -138 41 l-88 24 6 30 c3 17 14 78 25 136 11 58 25
170 31 250 6 79 14 148 16 152 3 4 97 8 210 8 l204 0 0 -42z m-1330 -888 c0
-143 -2 -260 -5 -260 -21 0 -99 52 -148 99 -71 67 -125 144 -183 262 -46 92
-52 116 -31 125 19 7 253 32 315 33 l52 1 0 -260z m455 239 c117 -14 135 -19
135 -35 0 -24 -88 -194 -135 -259 -23 -33 -67 -83 -97 -111 -57 -54 -151 -109
-168 -99 -12 7 -14 508 -2 519 8 9 138 1 267 -15z m-945 -235 c50 -97 89 -178
86 -181 -9 -9 -226 110 -283 156 -66 53 -122 126 -107 140 10 11 169 60 196
60 11 1 44 -52 108 -175z m1475 115 c21 -20 -154 -167 -285 -238 -41 -22 -78
-41 -82 -41 -4 0 14 35 39 78 25 42 61 113 80 157 19 43 38 85 44 91 7 9 32 6
102 -13 51 -14 96 -29 102 -34z"/>
</g>
</svg>
